<?xml version="1.0"?>
<svg width="512" height="512" xmlns="http://www.w3.org/2000/svg" xmlns:svg="http://www.w3.org/2000/svg">
 <g class="layer">
  <title>Layer 1</title>
  <rect fill="#6364ff" height="512" id="svg_2" rx="64" ry="64" width="512"/>
  <g id="svg_3">
   <path d="m472.39,152.66c-6.69,-42.56 -50.13,-76.09 -101.6,-82.55c-8.69,-1.1 -41.62,-5.11 -117.81,-5.11l-0.59,0c-76.25,0 -92.57,4.01 -101.25,5.11c-50.07,6.32 -95.79,36.44 -106.89,79.5c-5.28,21.2 -5.87,44.66 -4.88,66.27c1.41,30.94 1.7,61.76 4.99,92.59c2.24,20.45 6.22,40.75 11.86,60.7c10.51,36.9 53.18,67.62 94.97,80.15c44.78,13.03 92.91,15.23 138.99,6.26c5.11,-1 10.1,-2.2 15.03,-3.51c11.2,-3.06 24.36,-6.46 34.04,-12.44c0.12,-0.1 0.23,-0.2 0.29,-0.3c0.06,-0.15 0.12,-0.3 0.12,-0.45l0,-29.83c0,-0.1 0,-0.25 -0.12,-0.36c-0.06,-0.15 -0.12,-0.25 -0.23,-0.3c-0.18,-0.1 -0.29,-0.15 -0.47,-0.2c-0.12,0 -0.29,0 -0.41,0c-29.58,6.01 -59.81,9.07 -90.21,9.02c-52.3,0 -66.32,-21.2 -70.38,-30.02c-3.23,-7.62 -5.28,-15.54 -6.1,-23.66c0,-0.1 0,-0.25 0.12,-0.36c0.06,-0.15 0.12,-0.25 0.23,-0.36c0.18,-0.1 0.29,-0.15 0.47,-0.15c0.12,-0.05 0.29,-0.05 0.47,0c29.05,5.96 58.82,9.02 88.68,8.97c7.22,0 14.38,0 21.54,-0.15c30.05,-0.7 61.74,-2 91.33,-6.97c0.76,-0.1 1.46,-0.2 2.11,-0.41c46.66,-7.62 91.04,-31.63 95.55,-92.43c0.18,-2.4 0.59,-25.06 0.59,-27.57c0,-8.42 3.16,-59.89 -0.47,-91.48l0.01,0.01l0.01,0.03z" fill="#ffffff" id="svg_1"/>
   <path d="m398.5,200.49l0,105.66l-49.07,0l0,-102.55c0,-21.61 -10.51,-32.63 -31.98,-32.63c-23.54,0 -35.34,13.03 -35.34,38.8l0,56.14l-48.77,0l0,-56.14c0,-25.76 -11.8,-38.8 -35.39,-38.8c-21.31,0 -31.93,11.03 -31.93,32.63l0,102.55l-49.07,0l0,-105.66c0,-21.61 6.45,-38.8 19.36,-51.48c13.32,-12.68 30.81,-19.19 52.54,-19.19c25.06,0 44.08,8.22 56.7,24.71l12.21,17.5l12.21,-17.5c12.68,-16.49 31.64,-24.71 56.7,-24.71c21.66,0 39.15,6.52 52.54,19.19c12.85,12.68 19.31,29.87 19.31,51.48l-0.01,0z" fill="#6364FF" id="svg_4"/>
  </g>
 </g>
</svg>