<?xml version="1.0"?>
<svg width="512" height="512" xmlns="http://www.w3.org/2000/svg" xmlns:svg="http://www.w3.org/2000/svg">
 <defs>
  <linearGradient id="paint0_linear_549_34" x1="0.5" x2="0.5" y1="0" y2="1">
   <stop stop-color="#6364FF"/>
   <stop offset="1" stop-color="#563ACC"/>
  </linearGradient>
 </defs>
 <g class="layer">
  <title>Layer 1</title>
  <rect fill="#ffffff" height="512" id="svg_2" rx="64" ry="64" width="512"/>
  <g id="svg_3">
   <path d="m482.31,141.76c-7,-44.06 -52.43,-78.78 -106.27,-85.47c-9.09,-1.14 -43.53,-5.29 -123.22,-5.29l-0.62,0c-79.75,0 -96.82,4.15 -105.9,5.29c-52.37,6.54 -100.19,37.73 -111.8,82.31c-5.52,21.95 -6.14,46.24 -5.1,68.61c1.48,32.03 1.78,63.94 5.22,95.86c2.34,21.17 6.51,42.19 12.4,62.85c10.99,38.2 55.62,70.01 99.33,82.98c46.84,13.49 97.18,15.77 145.38,6.48c5.34,-1.04 10.56,-2.28 15.72,-3.63c11.72,-3.17 25.48,-6.69 35.6,-12.88c0.13,-0.1 0.24,-0.21 0.3,-0.31c0.06,-0.16 0.13,-0.31 0.13,-0.47l0,-30.88c0,-0.1 0,-0.26 -0.13,-0.37c-0.06,-0.16 -0.13,-0.26 -0.24,-0.31c-0.19,-0.1 -0.3,-0.16 -0.49,-0.21c-0.13,0 -0.3,0 -0.43,0c-30.94,6.22 -62.56,9.39 -94.36,9.34c-54.7,0 -69.37,-21.95 -73.61,-31.08c-3.38,-7.89 -5.52,-16.09 -6.38,-24.5c0,-0.1 0,-0.26 0.13,-0.37c0.06,-0.16 0.13,-0.26 0.24,-0.37c0.19,-0.1 0.3,-0.16 0.49,-0.16c0.13,-0.05 0.3,-0.05 0.49,0c30.39,6.17 61.52,9.34 92.76,9.29c7.55,0 15.04,0 22.53,-0.16c31.43,-0.72 64.58,-2.07 95.53,-7.22c0.8,-0.1 1.53,-0.21 2.21,-0.42c48.8,-7.89 95.22,-32.75 99.94,-95.7c0.19,-2.49 0.62,-25.95 0.62,-28.54c0,-8.72 3.31,-62.01 -0.49,-94.71l0.01,0.01z" fill="url(#paint0_linear_549_34)" id="svg_1"/>
   <path d="m405.02,191.28l0,109.4l-51.33,0l0,-106.18c0,-22.37 -10.99,-33.78 -33.45,-33.78c-24.62,0 -36.96,13.49 -36.96,40.17l0,58.12l-51.01,0l0,-58.12c0,-26.67 -12.34,-40.17 -37.02,-40.17c-22.29,0 -33.4,11.42 -33.4,33.78l0,106.18l-51.33,0l0,-109.4c0,-22.37 6.75,-40.17 20.25,-53.3c13.93,-13.13 32.23,-19.87 54.95,-19.87c26.21,0 46.11,8.51 59.31,25.58l12.77,18.12l12.77,-18.12c13.26,-17.07 33.09,-25.58 59.31,-25.58c22.66,0 40.95,6.75 54.95,19.87c13.44,13.13 20.2,30.93 20.2,53.3z" fill="white" id="svg_4"/>
  </g>
 </g>
</svg>